<?xml version="1.0" encoding="UTF-8"?> <svg xmlns="http://www.w3.org/2000/svg" width="381" height="382" viewBox="0 0 381 382" fill="none"><g filter="url(#filter0_d_16018_9806)"><rect x="4" y="3.74438" width="372.511" height="372.511" rx="186.255" fill="#F3F4F0"></rect><path d="M227.062 80.2201H263.225C266.786 80.2201 268.704 82.1437 268.704 85.7161V294.565C268.704 298.137 266.786 300.061 263.225 300.061H237.747C234.185 300.061 232.267 298.137 232.267 294.565V170.904H230.35L203.227 295.115C202.405 298.412 200.488 300.061 197.2 300.061H183.776C180.489 300.061 178.571 298.412 177.749 295.115L150.627 170.904H148.709V294.565C148.709 298.137 146.792 300.061 143.23 300.061H118.026C114.464 300.061 112.546 298.137 112.546 294.565V85.7161C112.546 82.1437 114.464 80.2201 118.026 80.2201H154.189C157.476 80.2201 159.394 81.8689 160.216 85.1665L190.625 222.018L221.035 85.1665C221.857 81.8689 223.775 80.2201 227.062 80.2201Z" fill="#0E2324"></path></g><defs><filter id="filter0_d_16018_9806" x="0" y="0.744385" width="380.511" height="380.511" filterUnits="userSpaceOnUse" color-interpolation-filters="sRGB"><feFlood flood-opacity="0" result="BackgroundImageFix"></feFlood><feColorMatrix in="SourceAlpha" type="matrix" values="0 0 0 0 0 0 0 0 0 0 0 0 0 0 0 0 0 0 127 0" result="hardAlpha"></feColorMatrix><feOffset dy="1"></feOffset><feGaussianBlur stdDeviation="2"></feGaussianBlur><feComposite in2="hardAlpha" operator="out"></feComposite><feColorMatrix type="matrix" values="0 0 0 0 0.054902 0 0 0 0 0.137255 0 0 0 0 0.141176 0 0 0 0.05 0"></feColorMatrix><feBlend mode="normal" in2="BackgroundImageFix" result="effect1_dropShadow_16018_9806"></feBlend><feBlend mode="normal" in="SourceGraphic" in2="effect1_dropShadow_16018_9806" result="shape"></feBlend></filter></defs></svg> 