<?xml version="1.0" encoding="UTF-8"?><svg id="Layer_1" xmlns="http://www.w3.org/2000/svg" viewBox="0 0 1080 985.58"><defs><style>.cls-1{fill:#ff6700;}</style></defs><path class="cls-1" d="M1079.73,148.57c-1.03-66.77-39.68-151.03-120.03-148.51-67.94,3.64-141.94,50.12-213.75,114.81-55.52-23.17-117.47-35.86-183.47-35.86-256.62,0-448.96,189.27-448.96,439.24,0,4.41.05,8.82.18,13.18v.05C59.18,619.3,15.22,715.04,1.95,818.97c-9.58,66.09,15.25,155.4,95.02,165.65,69.33,7.38,151.98-28.66,235.12-83.37.54-.36,1.08-.72,1.66-1.08,61.55-40.72,123.27-91.51,179.96-142.48,73.65-66.18,138.84-132.59,184.19-177.35-69.15,59.12-139.83,116.43-213.12,169.57-96.77-32.48-166.42-123.95-166.42-231.65,0-134.88,109.24-244.3,244.12-244.3,11.2,0,22.18.76,32.98,2.25-54.75,66.77-103.61,133.76-141.4,185.72-.05.09-.14.18-.18.22l-7.74,10.66c-1.84,2.52-3.64,5.04-5.44,7.47-3.55,4.86-6.97,9.58-10.26,14.08.05-.05.09-.09.13-.14,62.27-73.29,126.51-144.87,194.54-212.17,7.06-7.02,14.13-13.95,21.28-20.83,45.44-42.83,93.58-87.06,145.41-124.13,6.61-4.72,13.27-9.31,20.02-13.77,26.41-17.59,53.81-33.11,82.24-45.44,121.16-52.32,114.59,58.58,96.19,143.16-7.24,30.55-16.83,60.78-28.3,90.52-27.04-51.87-64.38-97.18-109.64-133.62-61.95,34.78-125.21,77.65-183.2,120.44,81.52,39.55,137.67,123.18,137.67,219.87,0,134.88-109.24,244.3-244.3,244.3h-.81c-45.13,52.82-100.28,111.26-163.67,166.73,50.43,18.31,105.77,28.21,164.48,28.21,255,0,449.18-189.09,449.18-439.24,0-18.09-1.03-35.86-3.06-53.27,43.15-99.61,74.64-206.19,71.13-316.42ZM174.08,918.17c-127.91,32.44-103.84-75.99-72.34-156.61,11.56-28.03,25.28-55.43,40.72-82.15,29.74,78.6,81.21,145.14,148.15,193.37-37.79,19.21-76.66,35.23-116.52,45.39Z"/></svg>